<svg width="19" height="20" viewBox="0 0 19 20" fill="none" xmlns="http://www.w3.org/2000/svg">
<path d="M9.50175 19.5C8.18775 19.5 6.95267 19.2512 5.7965 18.7535C4.64033 18.256 3.63467 17.5807 2.7795 16.7275C1.92433 15.8745 1.24725 14.8714 0.74825 13.7182C0.249417 12.5651 0 11.3321 0 10.0192C0 9.35942 0.0654166 8.71117 0.19625 8.0745C0.326917 7.43767 0.517917 6.81667 0.76925 6.2115L1.9345 7.377C1.79483 7.81033 1.6875 8.24475 1.6125 8.68025C1.5375 9.11592 1.5 9.55583 1.5 10C1.5 12.2333 2.275 14.125 3.825 15.675C5.375 17.225 7.26667 18 9.5 18C11.7333 18 13.625 17.225 15.175 15.675C16.725 14.125 17.5 12.2333 17.5 10C17.5 7.76667 16.725 5.875 15.175 4.325C13.625 2.775 11.7333 2 9.5 2C9.05 2 8.60933 2.0375 8.178 2.1125C7.7465 2.1875 7.31925 2.29483 6.89625 2.4345L5.74625 1.28475C6.34242 1.02958 6.94333 0.834999 7.549 0.700999C8.15483 0.566999 8.78592 0.5 9.44225 0.5C10.7629 0.5 12.004 0.748084 13.1655 1.24425C14.327 1.74042 15.3385 2.41767 16.2 3.276C17.0615 4.13433 17.7435 5.14108 18.246 6.29625C18.7487 7.45142 19 8.68567 19 9.999C19 11.3125 18.7507 12.5473 18.252 13.7035C17.7533 14.8597 17.0766 15.8653 16.2218 16.7205C15.3669 17.5757 14.3617 18.2528 13.206 18.7518C12.0503 19.2506 10.8156 19.5 9.50175 19.5ZM3.2115 4.90375C2.88467 4.90375 2.60425 4.78683 2.37025 4.553C2.13625 4.319 2.01925 4.0385 2.01925 3.7115C2.01925 3.38467 2.13625 3.10425 2.37025 2.87025C2.60425 2.63625 2.88467 2.51925 3.2115 2.51925C3.5385 2.51925 3.819 2.63625 4.053 2.87025C4.28683 3.10425 4.40375 3.38467 4.40375 3.7115C4.40375 4.0385 4.28683 4.319 4.053 4.553C3.819 4.78683 3.5385 4.90375 3.2115 4.90375Z" fill="#CED4DA"/>
</svg>
