<svg width="23" height="23" viewBox="0 0 23 23" fill="none" xmlns="http://www.w3.org/2000/svg">
<path fill-rule="evenodd" clip-rule="evenodd" d="M0 3.19444C0 2.34723 0.336557 1.53471 0.935631 0.935631C1.53471 0.336557 2.34723 0 3.19444 0H19.1667C20.1833 0 21.1584 0.403868 21.8772 1.12276C22.5961 1.84165 23 2.81667 23 3.83333V21.7222C23.0001 21.9496 22.9395 22.1728 22.8245 22.369C22.7094 22.5651 22.5442 22.727 22.3457 22.8379C22.1473 22.9488 21.9228 23.0048 21.6955 23.0001C21.4682 22.9953 21.2463 22.93 21.0527 22.8109L17.5694 20.6668L14.0862 22.8109C13.8849 22.9348 13.6531 23.0004 13.4167 23.0004C13.1803 23.0004 12.9485 22.9348 12.7471 22.8109L9.26389 20.6668L5.78067 22.8109C5.58702 22.93 5.3651 22.9953 5.1378 23.0001C4.91049 23.0048 4.68604 22.9488 4.48759 22.8379C4.28914 22.727 4.12389 22.5651 4.00888 22.369C3.89387 22.1728 3.83327 21.9496 3.83333 21.7222V14.0556H1.27778C0.93889 14.0556 0.613882 13.9209 0.374252 13.6813C0.134623 13.4417 0 13.1167 0 12.7778V3.19444ZM6.38889 19.435L8.59433 18.078C8.79569 17.9541 9.02747 17.8885 9.26389 17.8885C9.5003 17.8885 9.73209 17.9541 9.93344 18.078L13.4167 20.2221L16.8999 18.078C17.1012 17.9541 17.333 17.8885 17.5694 17.8885C17.8059 17.8885 18.0376 17.9541 18.239 18.078L20.4444 19.435V3.83333C20.4444 3.49445 20.3098 3.16944 20.0702 2.92981C19.8306 2.69018 19.5056 2.55556 19.1667 2.55556H6.325C6.36759 2.76256 6.38889 2.97552 6.38889 3.19444V19.435ZM3.19444 2.55556C3.025 2.55556 2.8625 2.62287 2.74268 2.74268C2.62287 2.8625 2.55556 3.025 2.55556 3.19444V11.5H3.83333V3.19444C3.83333 3.025 3.76602 2.8625 3.64621 2.74268C3.52639 2.62287 3.36389 2.55556 3.19444 2.55556ZM8.94444 7.66667C8.94444 7.32778 9.07907 7.00277 9.3187 6.76314C9.55833 6.52351 9.88333 6.38889 10.2222 6.38889H16.6111C16.95 6.38889 17.275 6.52351 17.5146 6.76314C17.7543 7.00277 17.8889 7.32778 17.8889 7.66667C17.8889 8.00555 17.7543 8.33056 17.5146 8.57019C17.275 8.80982 16.95 8.94444 16.6111 8.94444H10.2222C9.88333 8.94444 9.55833 8.80982 9.3187 8.57019C9.07907 8.33056 8.94444 8.00555 8.94444 7.66667ZM8.94444 12.7778C8.94444 12.4389 9.07907 12.1139 9.3187 11.8743C9.55833 11.6346 9.88333 11.5 10.2222 11.5H15.3333C15.6722 11.5 15.9972 11.6346 16.2369 11.8743C16.4765 12.1139 16.6111 12.4389 16.6111 12.7778C16.6111 13.1167 16.4765 13.4417 16.2369 13.6813C15.9972 13.9209 15.6722 14.0556 15.3333 14.0556H10.2222C9.88333 14.0556 9.55833 13.9209 9.3187 13.6813C9.07907 13.4417 8.94444 13.1167 8.94444 12.7778Z" fill="white"/>
</svg>
