<svg width="21" height="21" viewBox="0 0 21 21" fill="none" xmlns="http://www.w3.org/2000/svg">
<path d="M19.8188 1.54785C18.363 0.150335 16.0028 0.150395 14.5472 1.548L2.09918 13.4995C1.67592 13.9059 1.37841 14.417 1.23977 14.976L0.0985297 19.5775C0.0356964 19.8309 0.114269 20.0974 0.306103 20.2815C0.497946 20.4657 0.775571 20.5411 1.03949 20.4808L5.83246 19.3853C6.41496 19.2521 6.94754 18.9664 7.37093 18.5599L19.8189 6.60836C21.2745 5.21087 21.2745 2.94525 19.8188 1.54785ZM15.6521 2.60859C16.4975 1.79684 17.8684 1.7968 18.7139 2.60851C19.5594 3.42015 19.5595 4.73607 18.714 5.54776L17.7856 6.43921L14.7237 3.49987L15.6521 2.60859ZM13.6189 4.56059L16.6808 7.49993L6.26601 17.4993C6.0471 17.7095 5.77173 17.8572 5.47055 17.9261L1.91259 18.7393L2.75978 15.3235C2.83146 15.0344 2.98527 14.7702 3.20409 14.5601L13.6189 4.56059Z" fill="white"/>
</svg>
