<svg width="25" height="24" viewBox="0 0 25 24" fill="none" xmlns="http://www.w3.org/2000/svg">
<mask id="mask0_1_95" style="mask-type:alpha" maskUnits="userSpaceOnUse" x="0" y="0" width="25" height="24">
<path d="M0.5 0H24.5V24H0.5V0Z" fill="#D9D9D9"/>
</mask>
<g mask="url(#mask0_1_95)">
<path d="M5.5 14C5.5 12.8013 5.734 11.7045 6.202 10.7095C6.66983 9.71467 7.2275 8.8275 7.875 8.048C8.5225 7.2685 9.186 6.60408 9.8655 6.05475C10.545 5.50542 11.0898 5.08333 11.5 4.7885V6.3C11.5 7.22433 11.8109 7.95541 12.4328 8.49325C13.0546 9.03108 13.752 9.3 14.525 9.3C14.8468 9.3 15.1529 9.24808 15.4432 9.14425C15.7336 9.04042 16.0127 8.88717 16.2807 8.6845L16.7115 8.34625C17.5653 8.99491 18.2436 9.81183 18.7462 10.797C19.2487 11.7823 19.5 12.85 19.5 14C19.5 15.5308 19.0648 16.8876 18.1943 18.0702C17.3238 19.2529 16.209 20.0788 14.85 20.548C15.2103 20.2378 15.4921 19.8677 15.6953 19.4375C15.8984 19.0073 16 18.5448 16 18.05C16 17.6013 15.9135 17.1677 15.7405 16.749C15.5673 16.3305 15.3179 15.9584 14.9923 15.6327L12.5 13.1962L10.0328 15.6327C9.70325 15.9622 9.44875 16.3321 9.26925 16.7422C9.08975 17.1526 9 17.5885 9 18.05C9 18.5448 9.10158 19.0073 9.30475 19.4375C9.50792 19.8677 9.78967 20.2378 10.15 20.548C8.791 20.0788 7.67625 19.2529 6.80575 18.0702C5.93525 16.8876 5.5 15.5308 5.5 14ZM12.5 14.5922L14.2788 16.3405C14.5109 16.5725 14.6892 16.8314 14.8135 17.1172C14.9378 17.4032 15 17.7142 15 18.05C15 18.7257 14.7564 19.3029 14.2693 19.7817C13.7821 20.2606 13.1923 20.5 12.5 20.5C11.8077 20.5 11.2179 20.2606 10.7308 19.7817C10.2436 19.3029 10 18.7257 10 18.05C10 17.7308 10.059 17.4273 10.177 17.1395C10.2948 16.8517 10.4763 16.5853 10.7213 16.3405L12.5 14.5922Z" fill="#EEA63A"/>
</g>
</svg>
