<svg width="37" height="37" viewBox="0 0 37 37" fill="none" xmlns="http://www.w3.org/2000/svg">
<path d="M2.96566 18.0033L0 18.0031C0 -6.00103 37 -6.00105 37 18.0031L34.2086 18.0033C34.2086 -2.96797 2.96566 -3.03851 2.96566 18.0033Z" fill="white"/>
<path d="M31.6209 31.3701C23.7985 40.2258 3.45875 37.2568 0 21.9789C17.5179 20.2922 7.03174 32.813 31.6209 31.3701C32.9707 30.1131 34.416 27.4858 35.4164 25.4417C34.2394 24.6014 32.8485 23.2805 32.2755 22.6988C34.0986 21.841 35.9989 22.2704 36.6893 22.6494C36.6893 22.7012 36.1412 24.6177 35.6009 25.5706C35.5401 25.5291 35.4786 25.4861 35.4164 25.4417C34.416 27.4858 32.9707 30.1131 31.6209 31.3701Z" fill="#F1E9FF" fill-opacity="0.37"/>
<path d="M35.692 25.0782C26.1975 18.0363 29.4 13.463 24.0969 13.463C22.5105 13.463 21.5029 13.8998 20.2709 15.4455C18.731 17.3777 11.6428 28.8167 4.91396 29.3348C9.91548 34.5944 23.0732 41.1066 35.692 25.0782Z" fill="#F1E9FF" fill-opacity="0.61"/>
<path d="M3.3486 28.8592C8.28799 25.2924 11.0292 22.2486 26.1399 31.4748C27.8596 29.0303 28.3244 26.7253 29.0916 25.6409C30.4255 23.7554 31.5348 22.7921 32.58 22.2963C32.7643 22.2089 32.9567 22.1373 33.1539 22.0794C34.8837 21.5243 36.4149 21.9007 37 22.2084C37 22.3301 36.8514 22.7899 36.6514 23.348C36.4001 24.102 36.0787 24.961 35.7636 25.6409C33.1351 31.8306 28.3453 36.9993 18.9381 36.9993C11.6146 37.0664 5.72621 32.2097 3.3486 28.8592Z" fill="#E4D2FF"/>
<path d="M32.58 22.2963C32.7643 22.2089 32.9567 22.1373 33.1539 22.0794C34.8837 21.5243 36.4149 21.9007 37 22.2084C37 22.3301 36.8514 22.7899 36.6514 23.348C36.4001 24.102 36.0787 24.961 35.7636 25.6409C35.3853 25.5947 33.5263 23.235 32.58 22.2963Z" fill="#E0D7EF"/>
<path d="M12.0637 25.5898C10.3571 27.9986 5.58896 29.0341 3.55531 28.9538C5.47519 31.8043 11.4473 36.8112 19.2493 36.9539C25.1129 37.0611 29.1764 34.3869 32.0604 31.4891C15.8113 32.285 12.3339 26.7535 12.0637 25.4554V25.5898Z" fill="white"/>
</svg>
