<svg width="29" height="39" viewBox="0 0 29 39" fill="none" xmlns="http://www.w3.org/2000/svg">
<path d="M25.375 4.83333H19.3333C19.3333 2.16745 17.1659 0 14.5 0C11.8341 0 9.66667 2.16745 9.66667 4.83333H3.625C1.6237 4.83333 0 6.45703 0 8.45833V35.0417C0 37.043 1.6237 38.6667 3.625 38.6667H25.375C27.3763 38.6667 29 37.043 29 35.0417V8.45833C29 6.45703 27.3763 4.83333 25.375 4.83333ZM14.5 3.02083C15.5044 3.02083 16.3125 3.82891 16.3125 4.83333C16.3125 5.83776 15.5044 6.64583 14.5 6.64583C13.4956 6.64583 12.6875 5.83776 12.6875 4.83333C12.6875 3.82891 13.4956 3.02083 14.5 3.02083ZM21.75 25.9792C21.75 26.3115 21.4781 26.5833 21.1458 26.5833H16.9167V30.8125C16.9167 31.1448 16.6448 31.4167 16.3125 31.4167H12.6875C12.3552 31.4167 12.0833 31.1448 12.0833 30.8125V26.5833H7.85417C7.52188 26.5833 7.25 26.3115 7.25 25.9792V22.3542C7.25 22.0219 7.52188 21.75 7.85417 21.75H12.0833V17.5208C12.0833 17.1885 12.3552 16.9167 12.6875 16.9167H16.3125C16.6448 16.9167 16.9167 17.1885 16.9167 17.5208V21.75H21.1458C21.4781 21.75 21.75 22.0219 21.75 22.3542V25.9792ZM21.75 11.4792C21.75 11.8115 21.4781 12.0833 21.1458 12.0833H7.85417C7.52188 12.0833 7.25 11.8115 7.25 11.4792V10.2708C7.25 9.93854 7.52188 9.66667 7.85417 9.66667H21.1458C21.4781 9.66667 21.75 9.93854 21.75 10.2708V11.4792Z" fill="white"/>
</svg>
