<svg width="19" height="20" viewBox="0 0 19 20" fill="none" xmlns="http://www.w3.org/2000/svg">
<path d="M9.50175 19.5C8.18775 19.5 6.95267 19.2507 5.7965 18.752C4.64033 18.2533 3.63467 17.5766 2.7795 16.7218C1.92433 15.8669 1.24725 14.8617 0.74825 13.706C0.249417 12.5503 0 11.3156 0 10.0017C0 8.68775 0.249417 7.45267 0.74825 6.2965C1.24692 5.14033 1.92375 4.13467 2.77875 3.2795C3.63375 2.42433 4.63917 1.74725 5.795 1.24825C6.95083 0.749417 8.18583 0.5 9.5 0.5C10.5533 0.5 11.55 0.658333 12.49 0.975C13.43 1.29167 14.2923 1.73333 15.077 2.3L13.9923 3.40975C13.3461 2.96475 12.6462 2.61858 11.8925 2.37125C11.1388 2.12375 10.3413 2 9.5 2C7.28333 2 5.39583 2.77917 3.8375 4.3375C2.27917 5.89583 1.5 7.78333 1.5 10C1.5 12.2167 2.27917 14.1042 3.8375 15.6625C5.39583 17.2208 7.28333 18 9.5 18C11.7167 18 13.6042 17.2208 15.1625 15.6625C16.7208 14.1042 17.5 12.2167 17.5 10C17.5 9.64867 17.4769 9.30125 17.4307 8.95775C17.3846 8.61425 17.3153 8.28025 17.223 7.95575L18.4345 6.73475C18.6178 7.24875 18.7579 7.77758 18.8547 8.32125C18.9516 8.86475 19 9.42433 19 10C19 11.3142 18.7507 12.5492 18.252 13.705C17.7533 14.8608 17.0766 15.8663 16.2218 16.7213C15.3669 17.5763 14.3617 18.2531 13.206 18.7518C12.0503 19.2506 10.8156 19.5 9.50175 19.5ZM8.08075 14.2538L4.177 10.35L5.23075 9.29625L8.08075 12.1463L17.9462 2.2655L19 3.31925L8.08075 14.2538Z" fill="#2196F3"/>
</svg>
